<mxfile host="app.diagrams.net" modified="2023-04-09T17:03:25.668Z" agent="Mozilla/5.0 (Windows NT 10.0; Win64; x64) AppleWebKit/537.36 (KHTML, like Gecko) Chrome/112.0.0.0 Safari/537.36" etag="ewAbevK_0gqoa0Ur_5_T" version="21.1.5" type="github">
  <diagram name="Página-1" id="zZ402G7dOnnzNA6QHCI8">
    <mxGraphModel dx="1120" dy="484" grid="1" gridSize="10" guides="1" tooltips="1" connect="1" arrows="1" fold="1" page="1" pageScale="1" pageWidth="827" pageHeight="1169" math="0" shadow="0">
      <root>
        <mxCell id="0" />
        <mxCell id="1" parent="0" />
        <mxCell id="Hog-VggEp834yR86l_J_-2" style="edgeStyle=orthogonalEdgeStyle;rounded=0;orthogonalLoop=1;jettySize=auto;html=1;entryX=0.545;entryY=-0.017;entryDx=0;entryDy=0;entryPerimeter=0;" edge="1" parent="1" source="GDsnJsB3VPYshe2tHBm1-1" target="GDsnJsB3VPYshe2tHBm1-3">
          <mxGeometry relative="1" as="geometry" />
        </mxCell>
        <mxCell id="GDsnJsB3VPYshe2tHBm1-1" value="inicio" style="strokeWidth=2;html=1;shape=mxgraph.flowchart.terminator;whiteSpace=wrap;" parent="1" vertex="1">
          <mxGeometry x="120" y="30" width="100" height="60" as="geometry" />
        </mxCell>
        <mxCell id="Hog-VggEp834yR86l_J_-1" style="edgeStyle=orthogonalEdgeStyle;rounded=0;orthogonalLoop=1;jettySize=auto;html=1;" edge="1" parent="1" source="GDsnJsB3VPYshe2tHBm1-3">
          <mxGeometry relative="1" as="geometry">
            <mxPoint x="160" y="230" as="targetPoint" />
          </mxGeometry>
        </mxCell>
        <mxCell id="GDsnJsB3VPYshe2tHBm1-3" value="dataAtual,dataNascimento" style="shape=parallelogram;html=1;strokeWidth=2;perimeter=parallelogramPerimeter;whiteSpace=wrap;rounded=1;arcSize=12;size=0.23;" parent="1" vertex="1">
          <mxGeometry x="50" y="130" width="220" height="60" as="geometry" />
        </mxCell>
        <mxCell id="GDsnJsB3VPYshe2tHBm1-13" style="edgeStyle=orthogonalEdgeStyle;rounded=0;orthogonalLoop=1;jettySize=auto;html=1;" parent="1" source="GDsnJsB3VPYshe2tHBm1-12" edge="1">
          <mxGeometry relative="1" as="geometry">
            <mxPoint x="270" y="260" as="targetPoint" />
          </mxGeometry>
        </mxCell>
        <mxCell id="GDsnJsB3VPYshe2tHBm1-12" value="idade&amp;lt;-(dataAtual-dataNascimento)" style="rounded=1;whiteSpace=wrap;html=1;absoluteArcSize=1;arcSize=14;strokeWidth=2;" parent="1" vertex="1">
          <mxGeometry x="30" y="230" width="200" height="60" as="geometry" />
        </mxCell>
        <mxCell id="GDsnJsB3VPYshe2tHBm1-15" style="edgeStyle=orthogonalEdgeStyle;rounded=0;orthogonalLoop=1;jettySize=auto;html=1;" parent="1" source="GDsnJsB3VPYshe2tHBm1-14" edge="1">
          <mxGeometry relative="1" as="geometry">
            <mxPoint x="400" y="260" as="targetPoint" />
          </mxGeometry>
        </mxCell>
        <mxCell id="GDsnJsB3VPYshe2tHBm1-16" style="edgeStyle=orthogonalEdgeStyle;rounded=0;orthogonalLoop=1;jettySize=auto;html=1;" parent="1" source="GDsnJsB3VPYshe2tHBm1-14" edge="1">
          <mxGeometry relative="1" as="geometry">
            <mxPoint x="320" y="320" as="targetPoint" />
          </mxGeometry>
        </mxCell>
        <mxCell id="GDsnJsB3VPYshe2tHBm1-14" value="idade&amp;gt;=16" style="strokeWidth=2;html=1;shape=mxgraph.flowchart.decision;whiteSpace=wrap;" parent="1" vertex="1">
          <mxGeometry x="270" y="230" width="100" height="60" as="geometry" />
        </mxCell>
        <mxCell id="GDsnJsB3VPYshe2tHBm1-19" style="edgeStyle=orthogonalEdgeStyle;rounded=0;orthogonalLoop=1;jettySize=auto;html=1;" parent="1" source="GDsnJsB3VPYshe2tHBm1-17" edge="1">
          <mxGeometry relative="1" as="geometry">
            <mxPoint x="580" y="340" as="targetPoint" />
            <Array as="points">
              <mxPoint x="540" y="260" />
              <mxPoint x="540" y="340" />
              <mxPoint x="580" y="340" />
            </Array>
          </mxGeometry>
        </mxCell>
        <mxCell id="GDsnJsB3VPYshe2tHBm1-17" value="&quot; pode votar&quot;" style="shape=display;whiteSpace=wrap;html=1;" parent="1" vertex="1">
          <mxGeometry x="400" y="230" width="100" height="60" as="geometry" />
        </mxCell>
        <mxCell id="GDsnJsB3VPYshe2tHBm1-20" style="edgeStyle=orthogonalEdgeStyle;rounded=0;orthogonalLoop=1;jettySize=auto;html=1;" parent="1" source="GDsnJsB3VPYshe2tHBm1-18" edge="1">
          <mxGeometry relative="1" as="geometry">
            <mxPoint x="580" y="340" as="targetPoint" />
            <Array as="points">
              <mxPoint x="320" y="410" />
              <mxPoint x="540" y="410" />
              <mxPoint x="540" y="340" />
            </Array>
          </mxGeometry>
        </mxCell>
        <mxCell id="GDsnJsB3VPYshe2tHBm1-18" value="&quot;não pode votar&quot;" style="shape=display;whiteSpace=wrap;html=1;" parent="1" vertex="1">
          <mxGeometry x="270" y="320" width="100" height="60" as="geometry" />
        </mxCell>
        <mxCell id="GDsnJsB3VPYshe2tHBm1-21" value="fim" style="strokeWidth=2;html=1;shape=mxgraph.flowchart.terminator;whiteSpace=wrap;" parent="1" vertex="1">
          <mxGeometry x="580" y="310" width="100" height="60" as="geometry" />
        </mxCell>
        <mxCell id="W-sRSSv0_zyqZ_5rDuZ3-1" value="Se a idade for menor a 16" style="text;html=1;align=center;verticalAlign=middle;resizable=0;points=[];autosize=1;strokeColor=none;fillColor=none;" parent="1" vertex="1">
          <mxGeometry x="100" y="330" width="170" height="30" as="geometry" />
        </mxCell>
        <mxCell id="W-sRSSv0_zyqZ_5rDuZ3-2" value="Se a idade for maior ou igual 16" style="text;html=1;align=center;verticalAlign=middle;resizable=0;points=[];autosize=1;strokeColor=none;fillColor=none;" parent="1" vertex="1">
          <mxGeometry x="360" y="200" width="200" height="30" as="geometry" />
        </mxCell>
      </root>
    </mxGraphModel>
  </diagram>
</mxfile>
